<svg width="686" height="686" viewBox="0 0 686 686" fill="none" xmlns="http://www.w3.org/2000/svg">
<rect width="686" height="686" rx="50" fill="url(#paint0_linear_3912_17927)"/>
<path d="M164.068 261.136C164.068 304.668 167.318 338.815 172.911 366.435C178.36 393.349 186.548 415.538 198.348 430.18C204.425 437.722 212.599 444.651 223.154 447.782C234.314 451.092 245.346 449.316 254.724 444.201C271.534 435.031 282.154 415.948 288.94 396.838C295.476 378.433 323.635 309.931 330.497 360.58C335.764 399.457 344.199 428.947 355.192 450.522C366.183 472.094 380.754 487.605 398.878 494.535C434.311 508.084 470.388 491.504 485.626 457.16C510.449 401.217 486.369 331.675 494.146 272.892C496.481 255.249 501.925 236.036 521.931 236.036V186.126C497.255 186.126 477.487 198.323 464.253 215.976C452.396 231.791 447.386 251.682 445.161 268.51C438.281 320.508 459.178 389.956 440.9 431.146C431.745 451.781 406.825 444.154 398.878 426.811C391.524 412.378 385.682 388.882 380.877 353.422C377.809 330.781 372.557 303.887 354.61 288.311C337.292 273.281 314.219 276.547 297.075 289.823C284.1 299.873 272.776 315.433 263.887 330.454C255.965 343.841 250.327 358.721 244.959 372.613C229.32 413.101 220.06 343.098 218.179 326.061C216.135 307.529 214.932 286.795 214.932 261.136H164.068Z" fill="#FFAB41"/>
<defs>
<linearGradient id="paint0_linear_3912_17927" x1="0" y1="0" x2="820.875" y2="259.73" gradientUnits="userSpaceOnUse">
<stop stop-color="#580A46"/>
<stop offset="1" stop-color="#2A0321"/>
</linearGradient>
</defs>
</svg>
