<svg xmlns="http://www.w3.org/2000/svg" fill="none" viewBox="0 0 1181 500" height="500" width="1181">
<rect fill="url(#paint0_linear_3578_5497)" rx="40" height="500" width="500"></rect>
<path fill="#330628" d="M577.237 120H566V67.0651H576.301V83.4675H577.029C578.59 74.5207 585.457 66 598.566 66C612.925 66 620 75.9053 620 88.1538V120H608.763V91.2426C608.763 81.3373 604.393 76.3314 593.676 76.3314C582.335 76.3314 577.237 82.2959 577.237 93.7988V120Z"></path>
<path fill="#330628" d="M656.691 121C639.37 121 628 111.213 628 93.5532C628 77.0638 639.264 66 656.478 66C672.842 66 684 75.0426 684 91.1064C684 93.0213 683.894 94.5106 683.575 96.1064H638.733C639.158 106.319 644.152 111.745 656.372 111.745C667.423 111.745 671.992 108.128 671.992 101.851V101H683.469V101.957C683.469 113.234 672.417 121 656.691 121ZM656.266 75.0426C644.577 75.0426 639.476 80.2553 638.839 89.7234H673.161V89.5106C673.161 79.7234 667.53 75.0426 656.266 75.0426Z"></path>
<path fill="#330628" d="M727 120H715.015C703.768 120 696.831 115.036 696.831 102.257V77.0165H688V67.5115H696.831V56H708.079V67.5115H727V77.0165H708.079V101.624C708.079 108.066 711.022 109.756 717.539 109.756H727V120Z"></path>
<path fill="#330628" d="M839 61.1866H828V49H839V61.1866ZM839 120H828V67.3328H839V120Z"></path>
<path fill="#330628" d="M873.754 121C857.033 121 847.523 114.298 847.523 102.064V101.745H858.809V102.596C858.809 109.511 862.885 111.745 873.754 111.745C883.891 111.745 886.922 109.617 886.922 104.936C886.922 100.574 884.414 99.1915 876.994 98.1277L862.781 96.2128C852.957 94.9362 847 90.6809 847 81.8511C847 72.5957 855.256 66 871.246 66C887.131 66 896.746 72.4894 896.746 85.0426V85.3617H885.564V84.7234C885.564 78.4468 882.428 75.1489 870.932 75.1489C861.422 75.1489 858.078 77.2766 858.078 82.2766C858.078 86.4255 860.168 87.9149 868.006 88.9787L880.025 90.6809C892.357 92.2766 898 96.5319 898 105.255C898 115.149 888.385 121 873.754 121Z"></path>
<path fill="#330628" d="M932.691 121C915.37 121 904 111.213 904 93.5532C904 77.0638 915.264 66 932.478 66C948.842 66 960 75.0426 960 91.1064C960 93.0213 959.894 94.5106 959.575 96.1064H914.732C915.157 106.319 920.152 111.745 932.372 111.745C943.423 111.745 947.992 108.128 947.992 101.851V101H959.469V101.957C959.469 113.234 948.417 121 932.691 121ZM932.266 75.0426C920.577 75.0426 915.476 80.2553 914.839 89.7234H949.161V89.5106C949.161 79.7234 943.529 75.0426 932.266 75.0426Z"></path>
<path fill="#FFAB41" d="M733 67.2061C733 77.7715 733.799 86.0594 735.175 92.763C736.514 99.2954 738.527 104.681 741.429 108.234C742.924 110.065 744.934 111.747 747.529 112.507C750.274 113.31 752.987 112.879 755.293 111.637C759.426 109.412 762.038 104.78 763.706 100.142C765.314 95.6749 772.238 79.0486 773.925 91.3416C775.221 100.778 777.295 107.935 779.997 113.171C782.701 118.407 786.284 122.172 790.741 123.854C799.454 127.143 808.326 123.118 812.073 114.783C818.176 101.205 812.255 84.3263 814.167 70.0589C814.741 65.7771 816.08 61.1141 821 61.1141V49C814.932 49 810.071 51.9605 806.816 56.2451C803.901 60.0838 802.67 64.9112 802.122 68.9955C800.43 81.6161 805.569 98.4719 801.074 108.469C798.822 113.477 792.695 111.626 790.741 107.417C788.932 103.914 787.496 98.2109 786.315 89.6046C785.56 84.1094 784.269 77.5822 779.855 73.8016C775.597 70.1535 769.923 70.9458 765.707 74.1687C762.516 76.6076 759.732 80.3842 757.546 84.0299C755.598 87.2788 754.211 90.8905 752.891 94.2625C749.046 104.089 746.769 87.0988 746.306 82.964C745.803 78.4658 745.508 73.4334 745.508 67.2061H733Z"></path>
<path fill="#330628" d="M566.66 148.559H619.353C661.31 148.559 680.122 173.773 680.122 215.238C680.122 257.195 660.818 283 619.353 283H566.66V148.559ZM599.064 174.167V257.294H614.231C637.18 257.294 646.93 243.604 646.93 216.026C646.93 188.35 637.081 174.167 614.231 174.167H599.064ZM795.166 257.294V283H704.948V148.559H795.166V174.266H736.958V203.518H791.522V227.155H736.958V257.294H795.166ZM851.904 283H823.144V148.559H856.533L891.103 225.186H892.187L926.757 148.559H959.949V283H930.795V199.184H929.219L900.952 262.809H881.944L853.381 199.184H851.904V283ZM1105.82 223.807C1105.82 261.627 1084.05 285.462 1046.04 285.462C1008.12 285.462 986.154 261.627 986.154 223.807V208.147C986.154 169.932 1008.12 146.196 1046.04 146.196C1084.05 146.196 1105.82 170.129 1105.82 208.147V223.807ZM1072.83 207.753C1072.83 184.41 1061.99 172.493 1046.04 172.493C1029.98 172.493 1019.15 184.41 1019.15 207.753V223.905C1019.15 247.248 1029.98 259.165 1046.04 259.165C1061.99 259.165 1072.83 247.248 1072.83 223.905V207.753ZM559.372 411.588H590.2C591.283 420.453 600.049 427.741 614.724 427.741C629.694 427.741 636.786 421.142 636.786 412.278C636.786 403.906 630.088 400.065 616.891 397.209L597.882 393.072C576.509 388.64 562.13 377.117 562.13 354.857C562.13 329.053 583.404 312.999 614.527 312.999C648.112 312.999 665.545 331.909 666.333 352.691H636.392C635.308 344.713 627.823 337.425 614.428 337.425C601.428 337.425 594.336 343.925 594.336 352.494C594.336 359.684 600.935 364.116 612.36 366.282L631.861 370.321C652.347 374.359 668.697 384.503 668.697 409.028C668.697 434.537 649.688 452.462 613.443 452.462C575.426 452.462 560.16 432.666 559.372 411.588ZM751.535 450H719.23V342.054H682.591V315.559H788.173V342.054H751.535V450ZM919.666 390.807C919.666 428.627 897.899 452.462 859.882 452.462C821.962 452.462 799.999 428.627 799.999 390.807V375.147C799.999 336.932 821.962 313.196 859.882 313.196C897.899 313.196 919.666 337.129 919.666 375.147V390.807ZM886.671 374.753C886.671 351.41 875.837 339.493 859.882 339.493C843.827 339.493 832.993 351.41 832.993 374.753V390.905C832.993 414.248 843.827 426.165 859.882 426.165C875.837 426.165 886.671 414.248 886.671 390.905V374.753ZM1002.7 315.559C1034.61 315.559 1052.14 332.992 1052.14 359.585C1052.14 380.268 1038.55 393.171 1028.11 397.406L1054.9 450H1019.05L996.298 401.936H977.684V450H945.871V315.559H1002.7ZM977.684 378.988H997.579C1010.19 378.988 1018.85 372.684 1018.85 359.782C1018.85 346.683 1009.79 339.788 997.874 339.788H977.684V378.988ZM1168.27 424.294V450H1078.05V315.559H1168.27V341.266H1110.06V370.518H1164.63V394.155H1110.06V424.294H1168.27Z"></path>
<path fill="#FFAB41" d="M102 182.043C102 218.05 104.688 246.294 109.314 269.14C113.822 291.401 120.594 309.755 130.354 321.865C135.381 328.103 142.141 333.834 150.871 336.424C160.103 339.162 169.227 337.693 176.984 333.462C190.889 325.877 199.673 310.093 205.286 294.287C210.691 279.063 233.983 222.403 239.658 264.296C244.015 296.453 250.992 320.845 260.084 338.691C269.175 356.534 281.228 369.364 296.219 375.095C325.526 386.302 355.367 372.588 367.971 344.181C388.502 297.909 368.585 240.389 375.017 191.767C376.949 177.174 381.452 161.283 398 161.283V120C377.589 120 361.239 130.089 350.292 144.69C340.485 157.771 336.341 174.224 334.501 188.143C328.81 231.152 346.095 288.594 330.976 322.664C323.404 339.732 302.792 333.424 296.219 319.079C290.136 307.141 285.304 287.706 281.33 258.376C278.792 239.649 274.448 217.404 259.603 204.521C245.279 192.089 226.194 194.79 212.014 205.772C201.282 214.084 191.916 226.954 184.564 239.379C178.011 250.451 173.347 262.759 168.907 274.249C155.972 307.738 148.313 249.837 146.757 235.745C145.066 220.416 144.071 203.267 144.071 182.043H102Z"></path>
<defs>
<linearGradient gradientUnits="userSpaceOnUse" y2="-148.554" x2="340.678" y1="89.5" x1="4.99999" id="paint0_linear_3578_5497">
<stop stop-color="#510841"></stop>
<stop stop-color="#300526" offset="1"></stop>
</linearGradient>
</defs>
</svg>
