<svg width="4017" height="1014" viewBox="0 0 4017 1014" fill="none" xmlns="http://www.w3.org/2000/svg">
<path fill-rule="evenodd" clip-rule="evenodd" d="M3510.15 0C3790.08 0 4017 226.923 4017 506.846C4017 786.769 3790.08 1013.69 3510.15 1013.69H1433.08C1300.49 1013.69 1179.8 962.782 1089.47 879.445C1056.49 849.01 1014.84 827.901 969.963 827.901C925.081 827.901 883.437 849.01 850.451 879.445C760.127 962.782 639.432 1013.69 506.846 1013.69C226.923 1013.69 1.12114e-05 786.769 0 506.846C0 226.922 226.923 0 506.846 0C639.432 5.3158e-06 760.127 50.9093 850.451 134.246C883.437 164.681 925.081 185.791 969.962 185.791C1014.84 185.791 1056.49 164.681 1089.47 134.246C1179.8 50.9092 1300.49 1.24114e-05 1433.08 0H3510.15ZM506.846 100.146C282.231 100.146 100.146 282.231 100.146 506.846L100.148 508.161C100.856 731.732 281.959 912.835 505.53 913.543L506.846 913.546C731.021 913.546 912.834 732.17 913.543 508.161L913.546 506.846C913.546 282.67 732.17 100.857 508.161 100.148L506.846 100.146ZM1431.76 100.148C1207.75 100.857 1026.38 282.67 1026.38 506.846L1026.38 508.161C1027.09 731.732 1208.19 912.835 1431.76 913.543L1433.08 913.546H3510.15L3511.47 913.543C3735.04 912.835 3916.14 731.732 3916.85 508.161L3916.85 506.846C3916.85 282.67 3735.48 100.857 3511.47 100.148L3510.15 100.146H1433.08L1431.76 100.148Z" fill="white"/>
<path d="M1026.38 506.846C1026.38 282.232 1208.47 100.146 1433.08 100.146H3510.15C3734.77 100.146 3916.85 282.232 3916.85 506.846C3916.85 731.461 3734.77 913.546 3510.15 913.546H1433.08C1208.47 913.546 1026.38 731.461 1026.38 506.846Z" fill="url(#paint0_linear_3095_16584)"/>
<path d="M100.146 506.846C100.146 282.232 282.231 100.146 506.845 100.146C731.459 100.146 913.545 282.232 913.545 506.846C913.545 731.46 731.459 913.546 506.845 913.546C282.231 913.546 100.146 731.46 100.146 506.846Z" fill="url(#paint1_linear_3095_16584)"/>
<path d="M1520.18 672.013H1461.85V404.301H1515.32V487.254H1519.1C1527.2 442.007 1562.84 398.914 1630.89 398.914C1705.42 398.914 1742.14 449.009 1742.14 510.955V672.013H1683.81V526.576C1683.81 476.481 1661.13 451.164 1605.51 451.164C1546.64 451.164 1520.18 481.329 1520.18 539.504V672.013Z" fill="#FFAB41"/>
<path d="M1925.36 679.2C1836.44 679.2 1778.07 629.323 1778.07 539.328C1778.07 455.297 1835.9 398.914 1924.26 398.914C2008.27 398.914 2065.55 444.996 2065.55 526.859C2065.55 536.617 2065 544.207 2063.36 552.339H1833.17C1835.35 604.385 1860.99 632.034 1923.72 632.034C1980.45 632.034 2003.9 613.601 2003.9 581.615V577.278H2062.82V582.157C2062.82 639.624 2006.09 679.2 1925.36 679.2ZM1923.17 444.996C1863.17 444.996 1836.99 471.561 1833.71 519.811H2009.91V518.727C2009.91 468.85 1981 444.996 1923.17 444.996Z" fill="#FFAB41"/>
<path d="M2281.15 672.004H2219.32C2161.28 672.004 2125.49 646.364 2125.49 580.354V449.971H2079.92V400.873H2125.49V341.41H2183.52V400.873H2281.15V449.971H2183.52V577.081C2183.52 610.358 2198.71 619.087 2232.34 619.087H2281.15V672.004Z" fill="#FFAB41"/>
<path d="M2856.1 374.35H2805.79V312.672H2856.1V374.35ZM2856.1 672.013H2805.79V405.457H2856.1V672.013Z" fill="#FFAB41"/>
<path d="M3042.13 679.2C2957.31 679.2 2909.06 645.045 2909.06 582.699V581.073H2966.32V585.41C2966.32 620.649 2986.99 632.034 3042.13 632.034C3093.56 632.034 3108.94 621.191 3108.94 597.337C3108.94 575.109 3096.21 568.062 3058.57 562.64L2986.46 552.882C2936.63 546.376 2906.41 524.69 2906.41 479.693C2906.41 432.527 2948.29 398.914 3029.41 398.914C3110 398.914 3158.77 431.985 3158.77 495.957V497.583H3102.04V494.331C3102.04 462.344 3086.14 445.538 3027.82 445.538C2979.57 445.538 2962.61 456.381 2962.61 481.861C2962.61 503.005 2973.21 510.595 3012.97 516.016L3073.94 524.69C3136.5 532.822 3165.13 554.508 3165.13 598.963C3165.13 649.382 3116.36 679.2 3042.13 679.2Z" fill="#FFAB41"/>
<path d="M3341.16 679.2C3252.25 679.2 3193.88 629.323 3193.88 539.328C3193.88 455.297 3251.7 398.914 3340.07 398.914C3424.07 398.914 3481.35 444.996 3481.35 526.859C3481.35 536.617 3480.8 544.207 3479.17 552.339H3248.97C3251.15 604.385 3276.79 632.034 3339.52 632.034C3396.25 632.034 3419.71 613.601 3419.71 581.615V577.278H3478.62V582.157C3478.62 639.624 3421.89 679.2 3341.16 679.2ZM3338.98 444.996C3278.97 444.996 3252.79 471.561 3249.52 519.811H3425.71V518.727C3425.71 468.85 3396.8 444.996 3338.98 444.996Z" fill="#FFAB41"/>
<path d="M2317.09 405.64C2317.09 459.591 2321.13 501.913 2328.1 536.144C2334.88 569.502 2345.07 597.001 2359.77 615.148C2367.33 624.494 2377.51 633.083 2390.65 636.964C2404.55 641.067 2418.29 638.865 2429.97 632.525C2450.89 621.161 2464.12 597.509 2472.57 573.825C2480.71 551.014 2515.76 466.113 2524.31 528.886C2530.87 577.07 2541.37 613.621 2555.05 640.359C2568.74 667.095 2586.89 686.322 2609.45 694.91C2653.57 711.701 2698.49 691.15 2717.47 648.588C2748.37 579.254 2718.39 493.063 2728.07 420.208C2730.98 398.343 2737.76 374.532 2762.67 374.532V312.672C2731.94 312.672 2707.33 327.789 2690.85 349.669C2676.09 369.27 2669.85 393.921 2667.08 414.777C2658.51 479.223 2684.53 565.296 2661.78 616.346C2650.37 641.921 2619.35 632.467 2609.45 610.972C2600.3 593.084 2593.02 563.964 2587.04 520.016C2583.22 491.956 2576.68 458.625 2554.33 439.319C2532.77 420.691 2504.04 424.737 2482.7 441.194C2466.54 453.648 2452.44 472.933 2441.37 491.549C2431.51 508.139 2424.49 526.582 2417.8 543.802C2398.33 593.979 2386.8 507.221 2384.46 486.106C2381.91 463.137 2380.42 437.439 2380.42 405.64H2317.09Z" fill="#FFAB41"/>
<path d="M235.184 409.485C235.184 470.402 239.813 518.188 247.78 556.839C255.544 594.503 267.207 625.553 284.016 646.042C292.674 656.596 304.317 666.293 319.354 670.676C335.251 675.308 350.968 672.822 364.327 665.663C388.273 652.833 403.4 626.127 413.068 599.384C422.38 573.628 462.492 477.766 472.268 548.644C479.771 603.049 491.787 644.319 507.446 674.508C523.104 704.697 543.863 726.406 569.681 736.101C620.154 755.062 671.55 731.86 693.257 683.8C728.615 605.514 694.313 508.196 705.393 425.934C708.718 401.246 716.473 374.361 744.974 374.361V304.515C709.822 304.515 681.661 321.584 662.81 346.288C645.918 368.42 638.783 396.254 635.611 419.802C625.811 492.569 655.58 589.755 629.543 647.396C616.499 676.272 580.999 665.598 569.681 641.328C559.205 621.131 550.881 588.25 544.037 538.629C539.667 506.945 532.186 469.311 506.619 447.513C481.949 426.48 449.081 431.048 424.656 449.63C406.173 463.692 390.043 485.467 377.381 506.487C366.096 525.219 358.061 546.043 350.416 565.485C328.138 622.141 314.945 524.181 312.268 500.341C309.354 474.406 307.641 445.391 307.641 409.485H235.184Z" fill="#FFAB41"/>
<defs>
<linearGradient id="paint0_linear_3095_16584" x1="1026.38" y1="100.146" x2="3503.14" y2="1597.75" gradientUnits="userSpaceOnUse">
<stop stop-color="#560945"/>
<stop offset="1" stop-color="#2C0423"/>
</linearGradient>
<linearGradient id="paint1_linear_3095_16584" x1="100.146" y1="100.146" x2="1399.77" y2="330.804" gradientUnits="userSpaceOnUse">
<stop stop-color="#530842"/>
<stop offset="1" stop-color="#310527"/>
</linearGradient>
</defs>
</svg>
