<svg width="1319" height="359" viewBox="0 0 1319 359" fill="none" xmlns="http://www.w3.org/2000/svg">
<rect width="358.234" height="358.234" rx="20" fill="url(#paint0_linear_4051_15042)"/>
<path d="M92 139.412C92 160.543 93.58 177.119 96.2994 190.526C98.9491 203.59 102.93 214.362 108.667 221.469C111.622 225.13 115.597 228.493 120.728 230.013C126.155 231.62 131.519 230.758 136.079 228.275C144.252 223.824 149.416 214.56 152.715 205.284C155.893 196.35 169.584 163.098 172.921 187.684C175.482 206.556 179.583 220.871 184.928 231.343C190.272 241.815 197.357 249.345 206.169 252.708C223.397 259.285 240.939 251.237 248.348 234.566C260.417 207.41 248.709 173.653 252.49 145.118C253.625 136.554 256.272 127.228 266 127.228V103C254.002 103 244.39 108.921 237.956 117.49C232.191 125.167 229.755 134.822 228.673 142.991C225.328 168.232 235.488 201.943 226.601 221.938C222.15 231.955 210.033 228.252 206.169 219.834C202.593 212.828 199.753 201.422 197.417 184.209C195.925 173.219 193.371 160.164 184.645 152.603C176.225 145.307 165.006 146.892 156.67 153.337C150.362 158.215 144.856 165.768 140.534 173.06C136.682 179.558 133.941 186.781 131.331 193.525C123.727 213.178 119.224 179.198 118.31 170.928C117.316 161.932 116.731 151.867 116.731 139.412H92Z" fill="#FFAB41"/>
<path d="M451.489 252.318H425.701V133.952H449.34V170.629H451.012C454.593 150.623 470.353 131.57 500.438 131.57C533.39 131.57 549.627 153.719 549.627 181.108V252.318H523.839V188.015C523.839 165.866 513.81 154.672 489.216 154.672C463.189 154.672 451.489 168.009 451.489 193.73V252.318Z" fill="#500940"/>
<path d="M630.633 255.496C591.32 255.496 565.514 233.443 565.514 193.653C565.514 156.499 591.079 131.57 630.151 131.57C667.292 131.57 692.617 151.945 692.617 188.14C692.617 192.454 692.375 195.81 691.652 199.406H589.873C590.838 222.417 602.174 234.642 629.91 234.642C654.993 234.642 665.363 226.492 665.363 212.349V210.432H691.411V212.589C691.411 237.998 666.328 255.496 630.633 255.496ZM629.669 151.945C603.138 151.945 591.562 163.69 590.114 185.024H668.016V184.544C668.016 162.492 655.234 151.945 629.669 151.945Z" fill="#580A46"/>
<path d="M787.945 252.314H760.604C734.945 252.314 719.12 240.977 719.12 211.792V154.145H698.973V132.436H719.12V106.146H744.779V132.436H787.945V154.145H744.779V210.345C744.779 225.058 751.494 228.917 766.362 228.917H787.945V252.314Z" fill="#500940"/>
<path d="M1042.15 120.71H1019.91V93.4393H1042.15V120.71ZM1042.15 252.318H1019.91V134.463H1042.15V252.318Z" fill="#500940"/>
<path d="M1124.4 255.496C1086.9 255.496 1065.57 240.395 1065.57 212.829V212.11H1090.88V214.027C1090.88 229.608 1100.02 234.642 1124.4 234.642C1147.14 234.642 1153.94 229.848 1153.94 219.301C1153.94 209.473 1148.31 206.357 1131.67 203.96L1099.79 199.645C1077.76 196.769 1064.39 187.181 1064.39 167.286C1064.39 146.432 1082.91 131.57 1118.78 131.57C1154.41 131.57 1175.97 146.192 1175.97 174.477V175.196H1150.89V173.758C1150.89 159.615 1143.86 152.185 1118.07 152.185C1096.74 152.185 1089.24 156.979 1089.24 168.245C1089.24 177.593 1093.93 180.949 1111.51 183.346L1138.47 187.181C1166.13 190.776 1178.79 200.364 1178.79 220.02C1178.79 242.312 1157.22 255.496 1124.4 255.496Z" fill="#500940"/>
<path d="M1256.61 255.496C1217.3 255.496 1191.5 233.443 1191.5 193.653C1191.5 156.499 1217.06 131.57 1256.13 131.57C1293.27 131.57 1318.6 151.945 1318.6 188.14C1318.6 192.454 1318.36 195.81 1317.63 199.406H1215.85C1216.82 222.417 1228.16 234.642 1255.89 234.642C1280.97 234.642 1291.34 226.492 1291.34 212.35V210.432H1317.39V212.589C1317.39 237.998 1292.31 255.496 1256.61 255.496ZM1255.65 151.945C1229.12 151.945 1217.54 163.69 1216.1 185.024H1294V184.544C1294 162.492 1281.22 151.945 1255.65 151.945Z" fill="#500940"/>
<path d="M803.832 134.544C803.832 158.398 805.621 177.11 808.7 192.245C811.699 206.994 816.207 219.152 822.702 227.176C826.048 231.308 830.548 235.105 836.359 236.822C842.503 238.636 848.577 237.662 853.74 234.859C862.994 229.835 868.84 219.377 872.575 208.905C876.175 198.82 891.675 161.282 895.453 189.036C898.354 210.34 902.997 226.501 909.047 238.322C915.099 250.144 923.122 258.644 933.1 262.442C952.605 269.866 972.467 260.779 980.855 241.961C994.52 211.306 981.263 173.197 985.545 140.985C986.83 131.318 989.827 120.79 1000.84 120.79V93.4393C987.257 93.4393 976.374 100.123 969.088 109.797C962.562 118.464 959.804 129.363 958.578 138.584C954.791 167.078 966.295 205.134 956.233 227.705C951.191 239.013 937.473 234.833 933.1 225.33C929.05 217.421 925.835 204.545 923.19 185.114C921.501 172.708 918.61 157.971 908.728 149.435C899.196 141.199 886.493 142.988 877.054 150.264C869.911 155.77 863.679 164.297 858.785 172.528C854.423 179.863 851.318 188.017 848.363 195.631C839.755 217.816 834.657 179.457 833.62 170.122C832.495 159.966 831.834 148.604 831.834 134.544H803.832Z" fill="#500940"/>
<defs>
<linearGradient id="paint0_linear_4051_15042" x1="0" y1="0" x2="428.666" y2="135.633" gradientUnits="userSpaceOnUse">
<stop stop-color="#580A46"/>
<stop offset="1" stop-color="#2A0321"/>
</linearGradient>
</defs>
</svg>
